<?xml version="1.0" standalone="no"?><!DOCTYPE svg PUBLIC "-//W3C//DTD SVG 1.1//EN" "http://www.w3.org/Graphics/SVG/1.1/DTD/svg11.dtd"><svg t="1741264834201" class="icon" viewBox="0 0 1024 1024" version="1.1" xmlns="http://www.w3.org/2000/svg" p-id="1156" xmlns:xlink="http://www.w3.org/1999/xlink" width="200" height="200"><path d="M422.4 601.6m-217.6 0a217.6 217.6 0 1 0 435.2 0 217.6 217.6 0 1 0-435.2 0Z" fill="#e8447a" p-id="1157" data-spm-anchor-id="a313x.search_index.0.i0.45503a81FoCsgC" class="selected"></path><path d="M499.2 179.2C315.392 179.2 166.4 328.192 166.4 512S315.392 844.8 499.2 844.8s332.8-148.992 332.8-332.8S683.008 179.2 499.2 179.2z m0 51.2c155.52 0 281.6 126.08 281.6 281.6s-126.08 281.6-281.6 281.6S217.6 667.52 217.6 512 343.68 230.4 499.2 230.4z" fill="#333333" p-id="1158"></path><path d="M643.264 569.4592l-153.216 87.5392a51.2 51.2 0 0 1-76.5952-44.4544V437.4528a51.2 51.2 0 0 1 76.608-44.4544l153.2032 87.552a51.2 51.2 0 0 1 0 88.9088zM464.64 612.544l153.216-87.552-153.216-87.5392v175.0912zM838.4 793.6a25.6 25.6 0 0 1 1.92 51.136L838.4 844.8h-320a25.6 25.6 0 0 1-1.92-51.136L518.4 793.6h320z" fill="#333333" p-id="1159"></path></svg>